<?xml version="1.0" encoding="utf-8"?>
<!-- Svg Vector Icons : http://www.onlinewebfonts.com/icon -->
<!DOCTYPE svg PUBLIC "-//W3C//DTD SVG 1.1//EN" "http://www.w3.org/Graphics/SVG/1.1/DTD/svg11.dtd">
<svg version="1.1" xmlns="http://www.w3.org/2000/svg" xmlns:xlink="http://www.w3.org/1999/xlink" x="0px" y="0px" viewBox="0 0 1000 1000" enable-background="new 0 0 1000 1000" xml:space="preserve">
<metadata> Svg Vector Icons : http://www.onlinewebfonts.com/icon </metadata>
<g><g><path d="M375.2,627.4c70.1,0,129.6-24.5,178.7-73.6c49-49,73.6-108.6,73.6-178.7c0-70.1-24.5-129.6-73.6-178.7c-49-49-108.6-73.6-178.7-73.6s-129.6,24.5-178.7,73.6S123,305.1,123,375.2c0,70.1,24.5,129.6,73.6,178.7C245.6,602.9,305.1,627.4,375.2,627.4z M711.5,627.4L990,905.9L905.9,990L627.4,711.5v-44.7l-15.8-15.8c-66.6,57.8-145.4,86.7-236.5,86.7c-101.6,0-187.9-35-258.8-105.1C45.5,562.6,10,476.8,10,375.2c0-101.6,35.5-187.9,106.4-258.8C187.3,45.5,273.6,10,375.2,10s187.4,35.5,257.5,106.4c70.1,70.9,105.1,157.2,105.1,258.8c0,91.1-28.9,169.9-86.7,236.5l15.8,15.8H711.5z"/></g></g>
</svg>